<svg width="16" height="16" viewBox="0 0 16 16" fill="none" xmlns="http://www.w3.org/2000/svg">
<path d="M2.58466 16C2.12484 16 1.73121 15.8433 1.40377 15.53C1.07632 15.2167 0.912598 14.84 0.912598 14.4V3.2C0.912598 2.76 1.07632 2.38333 1.40377 2.07C1.73121 1.75667 2.12484 1.6 2.58466 1.6H3.42069V0H5.09275V1.6H11.781V0H13.4531V1.6H14.2891C14.7489 1.6 15.1425 1.75667 15.47 2.07C15.7974 2.38333 15.9611 2.76 15.9611 3.2V14.4C15.9611 14.84 15.7974 15.2167 15.47 15.53C15.1425 15.8433 14.7489 16 14.2891 16H2.58466ZM2.58466 14.4H14.2891V6.4H2.58466V14.4ZM2.58466 4.8H14.2891V3.2H2.58466V4.8Z" fill="#111111"/>
</svg>
