<svg width="19" height="20" viewBox="0 0 19 20" fill="none" xmlns="http://www.w3.org/2000/svg">
<path d="M17.1846 19L12.6201 14.4354C11.978 14.9365 11.2695 15.328 10.4943 15.6098C9.71922 15.8917 8.89321 16.0326 8.01631 16.0326C5.91801 16.0326 4.14071 15.3045 2.68443 13.8482C1.22814 12.3919 0.5 10.6146 0.5 8.51631C0.5 6.41801 1.22814 4.64071 2.68443 3.18443C4.14071 1.72814 5.91801 1 8.01631 1C10.1146 1 11.8919 1.72814 13.3482 3.18443C14.8045 4.64071 15.5326 6.41801 15.5326 8.51631C15.5326 9.39321 15.3917 10.2192 15.1098 10.9943C14.828 11.7695 14.4365 12.478 13.9354 13.1201L18.5 17.6846L17.1846 19ZM8.01631 14.1535C9.58221 14.1535 10.9132 13.6055 12.0094 12.5094C13.1055 11.4132 13.6535 10.0822 13.6535 8.51631C13.6535 6.95041 13.1055 5.6194 12.0094 4.52327C10.9132 3.42714 9.58221 2.87908 8.01631 2.87908C6.45041 2.87908 5.1194 3.42714 4.02327 4.52327C2.92714 5.6194 2.37908 6.95041 2.37908 8.51631C2.37908 10.0822 2.92714 11.4132 4.02327 12.5094C5.1194 13.6055 6.45041 14.1535 8.01631 14.1535Z" fill="black" stroke="black" stroke-width="0.25"/>
</svg>
