<svg width="8" height="12" viewBox="0 0 8 12" fill="none" xmlns="http://www.w3.org/2000/svg">
<path d="M7.16264 10.662C7.30962 10.809 7.3922 11.0083 7.3922 11.2162C7.3922 11.4241 7.30962 11.6234 7.16264 11.7704C7.01565 11.9174 6.81629 12 6.60841 12C6.40054 12 6.20118 11.9174 6.05419 11.7704L0.837979 6.55422C0.765036 6.48153 0.707159 6.39516 0.667668 6.30005C0.628177 6.20494 0.607849 6.10298 0.607849 6C0.607849 5.89702 0.628177 5.79505 0.667668 5.69995C0.707159 5.60484 0.765036 5.51847 0.837979 5.44578L6.05419 0.229566C6.20118 0.0825774 6.40054 -3.09756e-09 6.60841 0C6.81629 3.09756e-09 7.01565 0.0825776 7.16264 0.229567C7.30962 0.376555 7.3922 0.575915 7.3922 0.783789C7.3922 0.991662 7.30962 1.19102 7.16264 1.33801L2.5013 5.99935L7.16264 10.662Z" fill="#AAAAAA"/>
</svg>
