<svg width="14" height="12" viewBox="0 0 14 12" fill="none" xmlns="http://www.w3.org/2000/svg">
<path d="M7.27036 10.662C7.41735 10.809 7.49993 11.0083 7.49993 11.2162C7.49993 11.4241 7.41735 11.6234 7.27036 11.7704C7.12337 11.9174 6.92401 12 6.71614 12C6.50827 12 6.30891 11.9174 6.16192 11.7704L0.945706 6.55422C0.872763 6.48153 0.814886 6.39516 0.775395 6.30005C0.735904 6.20494 0.715576 6.10298 0.715576 6C0.715576 5.89702 0.735904 5.79505 0.775395 5.69995C0.814886 5.60484 0.872763 5.51847 0.945706 5.44578L6.16192 0.229566C6.30891 0.0825774 6.50827 -3.09756e-09 6.71614 0C6.92401 3.09756e-09 7.12337 0.0825776 7.27036 0.229567C7.41735 0.376555 7.49993 0.575915 7.49993 0.783789C7.49993 0.991662 7.41735 1.19102 7.27036 1.33801L2.60903 5.99935L7.27036 10.662Z" fill="white"/>
<path d="M13.0548 10.662C13.2018 10.809 13.2844 11.0083 13.2844 11.2162C13.2844 11.4241 13.2018 11.6234 13.0548 11.7704C12.9078 11.9174 12.7084 12 12.5006 12C12.2927 12 12.0933 11.9174 11.9463 11.7704L6.73013 6.55422C6.65719 6.48153 6.59931 6.39516 6.55982 6.30005C6.52033 6.20494 6.5 6.10298 6.5 6C6.5 5.89702 6.52033 5.79505 6.55982 5.69995C6.59931 5.60484 6.65719 5.51847 6.73013 5.44578L11.9463 0.229566C12.0933 0.0825774 12.2927 -3.09756e-09 12.5006 0C12.7084 3.09756e-09 12.9078 0.0825776 13.0548 0.229567C13.2018 0.376555 13.2844 0.575915 13.2844 0.783789C13.2844 0.991662 13.2018 1.19102 13.0548 1.33801L8.39345 5.99935L13.0548 10.662Z" fill="white"/>
</svg>
