<svg width="15" height="14" viewBox="0 0 15 14" fill="none" xmlns="http://www.w3.org/2000/svg">
<path d="M14.25 2.49999V5.49999C14.25 5.6989 14.171 5.88967 14.0303 6.03032C13.8897 6.17097 13.6989 6.24999 13.5 6.24999H10.5C10.3011 6.24999 10.1103 6.17097 9.96965 6.03032C9.829 5.88967 9.74998 5.6989 9.74998 5.49999C9.74998 5.30108 9.829 5.11031 9.96965 4.96966C10.1103 4.82901 10.3011 4.74999 10.5 4.74999H11.5687L10.3812 3.66374C10.3731 3.65624 10.365 3.64874 10.3575 3.64061C9.80687 3.09034 9.12945 2.68382 8.38483 2.45683C7.64022 2.22983 6.85122 2.18933 6.08728 2.33887C5.32333 2.4884 4.60784 2.82341 4.00377 3.3144C3.39969 3.80539 2.92555 4.43733 2.62305 5.15459C2.32055 5.87186 2.19898 6.65249 2.26902 7.42777C2.33906 8.20306 2.59857 8.94926 3.02471 9.6007C3.45086 10.2521 4.03058 10.7889 4.71287 11.1637C5.39516 11.5384 6.1591 11.7398 6.93748 11.75H6.99998C8.21243 11.7529 9.37952 11.2892 10.2594 10.455C10.404 10.3183 10.597 10.2447 10.7959 10.2503C10.9948 10.256 11.1833 10.3404 11.32 10.485C11.4566 10.6296 11.5303 10.8226 11.5246 11.0215C11.519 11.2204 11.4346 11.4089 11.29 11.5456C10.1318 12.6434 8.59575 13.2536 6.99998 13.25H6.91436C5.89126 13.2356 4.88735 12.9702 3.99078 12.4771C3.09421 11.9841 2.3324 11.2785 1.77224 10.4222C1.21208 9.56599 0.87071 8.58531 0.778097 7.56632C0.685485 6.54732 0.844466 5.52117 1.24108 4.57797C1.63769 3.63477 2.25981 2.80336 3.05281 2.15676C3.8458 1.51016 4.78541 1.06814 5.78915 0.869509C6.79288 0.670878 7.83003 0.721714 8.80952 1.01755C9.78902 1.31339 10.6809 1.84519 11.4069 2.56624L12.75 3.79499V2.49999C12.75 2.30108 12.829 2.11031 12.9697 1.96966C13.1103 1.82901 13.3011 1.74999 13.5 1.74999C13.6989 1.74999 13.8897 1.82901 14.0303 1.96966C14.171 2.11031 14.25 2.30108 14.25 2.49999Z" fill="white"/>
</svg>
