<svg width="14" height="12" viewBox="0 0 14 12" fill="none" xmlns="http://www.w3.org/2000/svg">
<path d="M7.27042 10.662C7.41741 10.809 7.49999 11.0083 7.49999 11.2162C7.49999 11.4241 7.41741 11.6234 7.27042 11.7704C7.12343 11.9174 6.92407 12 6.7162 12C6.50833 12 6.30897 11.9174 6.16198 11.7704L0.945767 6.55422C0.872824 6.48153 0.814947 6.39516 0.775456 6.30005C0.735965 6.20494 0.715637 6.10298 0.715637 6C0.715637 5.89702 0.735965 5.79505 0.775456 5.69995C0.814947 5.60484 0.872824 5.51847 0.945767 5.44578L6.16198 0.229566C6.30897 0.0825774 6.50833 -3.09756e-09 6.7162 0C6.92407 3.09756e-09 7.12343 0.0825776 7.27042 0.229567C7.41741 0.376555 7.49999 0.575915 7.49999 0.783789C7.49999 0.991662 7.41741 1.19102 7.27042 1.33801L2.60909 5.99935L7.27042 10.662Z" fill="#AAAAAA"/>
<path d="M13.0548 10.662C13.2018 10.809 13.2844 11.0083 13.2844 11.2162C13.2844 11.4241 13.2018 11.6234 13.0548 11.7704C12.9078 11.9174 12.7084 12 12.5006 12C12.2927 12 12.0933 11.9174 11.9463 11.7704L6.73013 6.55422C6.65719 6.48153 6.59931 6.39516 6.55982 6.30005C6.52033 6.20494 6.5 6.10298 6.5 6C6.5 5.89702 6.52033 5.79505 6.55982 5.69995C6.59931 5.60484 6.65719 5.51847 6.73013 5.44578L11.9463 0.229566C12.0933 0.0825774 12.2927 -3.09756e-09 12.5006 0C12.7084 3.09756e-09 12.9078 0.0825776 13.0548 0.229567C13.2018 0.376555 13.2844 0.575915 13.2844 0.783789C13.2844 0.991662 13.2018 1.19102 13.0548 1.33801L8.39345 5.99935L13.0548 10.662Z" fill="#AAAAAA"/>
</svg>
