<svg width="8" height="12" viewBox="0 0 8 12" fill="none" xmlns="http://www.w3.org/2000/svg">
<path d="M7.1627 10.662C7.30969 10.809 7.39226 11.0083 7.39226 11.2162C7.39226 11.4241 7.30969 11.6234 7.1627 11.7704C7.01571 11.9174 6.81635 12 6.60847 12C6.4006 12 6.20124 11.9174 6.05425 11.7704L0.83804 6.55422C0.765097 6.48153 0.70722 6.39516 0.667729 6.30005C0.628238 6.20494 0.60791 6.10298 0.60791 6C0.60791 5.89702 0.628238 5.79505 0.667729 5.69995C0.70722 5.60484 0.765097 5.51847 0.83804 5.44578L6.05425 0.229566C6.20124 0.0825774 6.4006 -3.09756e-09 6.60847 0C6.81635 3.09756e-09 7.01571 0.0825776 7.1627 0.229567C7.30969 0.376555 7.39226 0.575915 7.39226 0.783789C7.39226 0.991662 7.30969 1.19102 7.1627 1.33801L2.50136 5.99935L7.1627 10.662Z" fill="white"/>
</svg>
