<svg width="120" height="120" viewBox="0 0 120 120" fill="none" xmlns="http://www.w3.org/2000/svg">
<path d="M35.625 75.6372C36.6614 75.6372 37.5 74.7986 37.5 73.7622V71.8874V44.0625C37.5 43.0289 38.3405 42.1875 39.375 42.1875H69.0747C70.1111 42.1875 70.9497 41.348 70.9497 40.3125C70.9497 39.277 70.1111 38.4375 69.0747 38.4375H39.375C36.2732 38.4375 33.75 40.9607 33.75 44.0625V73.7622C33.75 74.7986 34.5886 75.6372 35.625 75.6372Z" fill="#AAAAAA"/>
<path d="M86.2501 44.0624C86.2501 41.9884 85.1093 40.1933 83.4343 39.2179L85.699 36.9534C86.4314 36.2209 86.4314 35.0344 85.699 34.302C84.9666 33.5696 83.78 33.5696 83.0476 34.302L34.3013 83.0474C33.5688 83.7798 33.5688 84.9664 34.3013 85.6988C34.6675 86.065 35.1472 86.2481 35.627 86.2481C36.1067 86.2481 36.5864 86.065 36.9526 85.6988L41.0891 81.5624H80.6251C83.7269 81.5624 86.2501 79.0392 86.2501 75.9374V44.0624ZM82.5001 75.9374C82.5001 76.972 81.6597 77.8124 80.6251 77.8124H44.8391L58.554 64.0978L63.3601 70.8856C63.6879 71.3506 64.2097 71.6436 64.7773 71.6784C65.3395 71.7022 65.8998 71.488 66.2806 71.0687L72.0082 64.7387L77.6057 72.4804C77.9719 72.9876 78.545 73.2568 79.1273 73.2568C79.5082 73.2568 79.8927 73.1414 80.2241 72.9016C81.0627 72.2936 81.2513 71.1218 80.6453 70.2831L73.6891 60.6637C73.3577 60.205 72.8358 59.9203 72.27 59.8901C71.7152 59.8672 71.1567 60.086 70.7777 60.5062L65.0831 66.8151L61.2463 61.4056L66.1969 56.4551C67.3166 57.5577 68.843 58.2183 70.4811 58.2183C73.8411 58.2183 76.5748 55.4846 76.5748 52.1246C76.5748 50.4835 75.9126 48.9598 74.8057 47.8464L80.4648 42.1874H80.6251C81.6597 42.1874 82.5001 43.0288 82.5001 44.0624V75.9374ZM72.1367 50.5153C72.5551 50.9403 72.8248 51.5014 72.8248 52.1246C72.8248 53.4173 71.7738 54.4683 70.4811 54.4683C69.8591 54.4683 69.2952 54.2017 68.8646 53.7874L72.1367 50.5153Z" fill="#AAAAAA"/>
<path d="M53.0932 51.3189C52.4762 51.3271 51.9012 51.6393 51.5588 52.1529L45.39 61.3961C44.886 62.1514 45.033 63.1172 45.6506 63.7367C45.7374 63.8238 45.8037 63.9261 45.91 63.9971C46.2286 64.2095 46.5911 64.312 46.9482 64.312C47.5543 64.312 48.1475 64.0191 48.5101 63.4771L53.2031 56.444C53.8421 56.9668 54.7705 57.0263 55.4773 56.5236C56.3214 55.9258 56.5228 54.7558 55.924 53.9107L55.7385 53.6488L54.6496 52.1108C54.2926 51.6063 53.7103 51.3161 53.0932 51.3189Z" fill="#AAAAAA"/>
</svg>
