<svg width="51" height="109" viewBox="0 0 51 109" fill="none" xmlns="http://www.w3.org/2000/svg">
<rect x="35.0015" width="16" height="16" rx="3" fill="#5530F4"/>
<path d="M41.5603 11.5368L38.2074 8.18385L39.0456 7.34561L41.5603 9.86032L46.9574 4.46326L47.7956 5.30149L41.5603 11.5368Z" fill="white"/>
<rect x="35.5015" y="46.5" width="15" height="15" rx="2.5" fill="white"/>
<rect x="35.5015" y="46.5" width="15" height="15" rx="2.5" stroke="#5530F4"/>
<path d="M41.5603 57.5368L38.2074 54.1838L39.0456 53.3456L41.5603 55.8603L46.9574 50.4633L47.7956 51.3015L41.5603 57.5368Z" fill="#5530F4"/>
<rect x="35.0015" y="92" width="16" height="16" rx="8" fill="#5530F4"/>
<path d="M41.5603 103.537L38.2074 100.184L39.0456 99.3456L41.5603 101.86L46.9574 96.4633L47.7956 97.3015L41.5603 103.537Z" fill="white"/>
<rect y="0.5" width="16" height="16" rx="3" fill="#D6D6D6"/>
<path d="M6.55887 12.0368L3.20593 8.68385L4.04417 7.84561L6.55887 10.3603L11.9559 4.96326L12.7942 5.80149L6.55887 12.0368Z" fill="white"/>
<rect x="0.5" y="47" width="15" height="15" rx="2.5" fill="white"/>
<rect x="0.5" y="47" width="15" height="15" rx="2.5" stroke="#D6D6D6"/>
<path d="M6.55887 58.0368L3.20593 54.6838L4.04417 53.8456L6.55887 56.3603L11.9559 50.9633L12.7942 51.8015L6.55887 58.0368Z" fill="#D6D6D6"/>
<rect x="0.5" y="93" width="15" height="15" rx="7.5" fill="white"/>
<rect x="0.5" y="93" width="15" height="15" rx="7.5" stroke="#D6D6D6"/>
<path d="M6.55887 104.037L3.20593 100.684L4.04417 99.8456L6.55887 102.36L11.9559 96.9633L12.7942 97.8015L6.55887 104.037Z" fill="#D6D6D6"/>
</svg>
