<svg width="27" height="63" viewBox="0 0 27 63" fill="none" xmlns="http://www.w3.org/2000/svg">
<path d="M4 3.10811L7.06667 0L8 0.945946L4 5L-4.17233e-07 0.945946L0.933333 0L4 3.10811Z" fill="#111111"/>
<path d="M4.10811 16.5L1 13.4333L1.94595 12.5L6 16.5L1.94595 20.5L1 19.5667L4.10811 16.5Z" fill="#111111"/>
<path d="M4.48649 32.5L2 29.8167L2.75676 29L6 32.5L2.75676 36L2 35.1833L4.48649 32.5Z" fill="#666666"/>
<path d="M3.5 48.4865L6.18333 46L7 46.7568L3.5 50L-2.07781e-08 46.7568L0.816667 46L3.5 48.4865Z" fill="#666666"/>
<circle cx="3.5" cy="61.5" r="1.5" fill="#666666"/>
<path d="M24.4865 32.5L22 29.8167L22.7568 29L26 32.5L22.7568 36L22 35.1833L24.4865 32.5Z" fill="#111111"/>
<path d="M23.5 48.4865L26.1833 46L27 46.7568L23.5 50L20 46.7568L20.8167 46L23.5 48.4865Z" fill="#111111"/>
<circle cx="23.5" cy="61.5" r="1.5" fill="#111111"/>
</svg>
